<svg width="200" height="200" viewBox="0 0 200 200" fill="none" xmlns="http://www.w3.org/2000/svg">
<path fill-rule="evenodd" clip-rule="evenodd" d="M110.582 20.7427C110.582 20.7427 94.0216 27.3878 75.8372 36.7543C57.6528 46.1207 66.4075 47.0489 68.939 46.8169C71.4704 46.5848 76.7654 46.3528 70.0781 50.9305C63.3908 55.5083 19.0268 80.1901 9.34391 108.775C-0.338968 137.359 45.0166 116.77 58.581 124.301C72.1455 131.832 46.6409 146.726 54.2142 158.391C61.7876 170.057 111.742 152.443 143.955 135.777C176.168 119.111 189.732 103.058 188.108 95.0625C186.484 87.0673 165.578 95.2945 164.186 86.6032C162.793 77.9118 179.374 65.8029 186.715 55.2973C194.057 44.7917 191.652 36.4378 186.948 32.6617C178.678 26.0377 152.688 39.2857 138.66 41.1211C124.631 42.9564 125.538 35.8683 128.766 29.9193C131.994 23.9703 133.112 12.9795 110.582 20.7427Z" fill="#EEF8FD"/>
<path fill-rule="evenodd" clip-rule="evenodd" d="M187.813 86.2023C188.129 86.4976 188.614 86.4976 188.931 86.2023L191.357 83.7763C191.652 83.4599 191.652 82.9747 191.357 82.6582L188.931 80.2322C188.635 79.9158 188.129 79.9158 187.834 80.2111L187.813 80.2322L185.387 82.6582C185.07 82.9536 185.07 83.4599 185.365 83.7552L185.387 83.7763L187.813 86.2023ZM188.361 86.8352C188.045 86.8352 187.749 86.7086 187.517 86.4976L185.091 84.0716C184.627 83.5864 184.627 82.8481 185.091 82.3629L187.517 79.9369C187.749 79.7259 188.045 79.5994 188.361 79.5994C188.678 79.5994 188.994 79.7048 189.226 79.9369L191.652 82.3629C192.116 82.8481 192.116 83.5864 191.652 84.0716L189.226 86.4976C188.994 86.7508 188.678 86.8563 188.361 86.8352Z" fill="#0B76BB"/>
<path fill-rule="evenodd" clip-rule="evenodd" d="M173.615 18.4222C172.434 18.3589 171.4 19.2449 171.337 20.4474C171.274 21.5865 172.096 22.578 173.214 22.7046H173.615C174.797 22.578 175.662 21.5233 175.535 20.3419C175.451 19.3504 174.649 18.5277 173.615 18.4222ZM173.615 23.1054C172.202 23.1265 171.063 21.9874 171.042 20.574C171.021 19.1605 172.16 18.0214 173.573 18.0003C174.987 17.9792 176.126 19.1184 176.147 20.5318V20.574C176.147 21.9874 175.029 23.1054 173.615 23.1054Z" fill="#0B76BB"/>
<path fill-rule="evenodd" clip-rule="evenodd" d="M158.068 31.1851C157.73 31.1851 157.414 31.3327 157.203 31.5859C156.95 31.8812 156.908 32.3031 157.055 32.6618L160.009 40.1718C160.241 40.7203 160.873 41.0156 161.443 40.8047C161.633 40.7414 161.802 40.6148 161.907 40.446L166.907 34.1174C167.16 33.822 167.223 33.4001 167.076 33.0415C166.928 32.6829 166.59 32.4297 166.211 32.3664L158.237 31.1851H158.068ZM161.063 41.1844H160.852C160.346 41.1211 159.924 40.7836 159.734 40.3195L156.739 32.8094C156.57 32.3453 156.654 31.8179 156.95 31.4171C157.266 31.0163 157.773 30.8054 158.279 30.8897L166.253 32.05C166.759 32.1133 167.181 32.4508 167.371 32.9149C167.561 33.379 167.497 33.9275 167.16 34.3283L162.16 40.657C161.907 40.9945 161.506 41.1844 161.063 41.1844Z" fill="#6D9ED4"/>
<path fill-rule="evenodd" clip-rule="evenodd" d="M24.9545 109.977C23.8154 109.977 22.8872 110.905 22.8872 112.044C22.8872 113.184 23.8154 114.112 24.9545 114.112C26.0937 114.112 27.0219 113.184 27.0219 112.044V112.023C27.0219 110.905 26.1148 109.998 24.9967 109.977H24.9545ZM24.9545 114.449C23.5833 114.47 22.4864 113.373 22.4653 112.002C22.4442 110.631 23.5411 109.534 24.9123 109.513C26.2836 109.492 27.3805 110.589 27.4016 111.96V111.981C27.4227 113.331 26.3679 114.428 25.0178 114.449C24.9967 114.47 24.9756 114.47 24.9545 114.449Z" fill="#B3D4EF"/>
<path fill-rule="evenodd" clip-rule="evenodd" d="M174.122 89.915C173.151 89.915 172.35 90.6956 172.329 91.666C172.413 92.6364 173.299 93.3536 174.269 93.2692C175.092 93.1848 175.767 92.552 175.851 91.7082V91.666C175.851 90.7167 175.071 89.9361 174.122 89.915ZM174.122 93.8177C172.919 93.8388 171.949 92.8684 171.928 91.666C171.907 90.4635 172.877 89.4931 174.079 89.472C175.282 89.4509 176.252 90.4213 176.273 91.6238V91.6449C176.294 92.8262 175.366 93.7966 174.185 93.8177C174.164 93.8388 174.143 93.8388 174.122 93.8177Z" fill="#B3D4EF"/>
<path fill-rule="evenodd" clip-rule="evenodd" d="M42.3163 118.373C42.1475 118.352 41.9787 118.394 41.8522 118.5C41.5568 118.668 41.3881 118.964 41.3881 119.301V126.495C41.3881 126.833 41.5568 127.149 41.8522 127.318C42.1475 127.466 42.485 127.466 42.7804 127.318L49.0247 123.71C49.2989 123.542 49.4888 123.225 49.4888 122.888C49.4888 122.571 49.2989 122.276 49.0247 122.107L42.7804 118.5C42.6327 118.394 42.4639 118.352 42.3163 118.373ZM42.3163 127.845C42.0842 127.845 41.8522 127.782 41.6623 127.655C41.2404 127.423 40.9873 126.98 40.9873 126.495V119.301C41.0084 118.563 41.6201 117.951 42.3585 117.972C42.5905 117.972 42.8015 118.036 42.9913 118.162L49.2356 121.748C49.6364 121.981 49.8896 122.423 49.8896 122.888C49.8896 123.373 49.6364 123.816 49.2356 124.069L42.9913 127.655C42.7804 127.761 42.5483 127.824 42.3163 127.845Z" fill="#0B76BB"/>
<path fill-rule="evenodd" clip-rule="evenodd" d="M119.767 126.622L132.273 117.93L148.417 141.158L135.911 149.851L119.767 126.622Z" fill="#058ACC"/>
<path fill-rule="evenodd" clip-rule="evenodd" d="M134.546 144.194L142.668 138.456C144.862 136.895 147.921 137.401 149.503 139.595C149.503 139.616 149.524 139.616 149.524 139.637L170.029 168.602C171.59 170.817 171.063 173.876 168.848 175.458L160.747 181.217C158.532 182.778 155.473 182.25 153.891 180.035L133.365 151.05C131.804 148.814 132.331 145.755 134.546 144.194Z" fill="#005D9F"/>
<mask id="mask0_4031_34295" style="mask-type:alpha" maskUnits="userSpaceOnUse" x="66" y="55" width="73" height="73">
<path d="M66.0067 91.4762C66.0067 111.527 82.2611 127.782 102.312 127.782C122.363 127.782 138.617 111.527 138.617 91.4762C138.617 71.4253 122.363 55.1709 102.312 55.1709C82.2611 55.1709 66.0067 71.4253 66.0067 91.4762Z" fill="white"/>
</mask>
<g mask="url(#mask0_4031_34295)">
<path fill-rule="evenodd" clip-rule="evenodd" d="M66.0067 91.4762C66.0067 111.527 82.2611 127.782 102.312 127.782C122.363 127.782 138.617 111.527 138.617 91.4762C138.617 71.4253 122.363 55.1709 102.312 55.1709C82.2611 55.1709 66.0067 71.4253 66.0067 91.4762Z" fill="#FDF3DE"/>
</g>
<path fill-rule="evenodd" clip-rule="evenodd" d="M108.008 124.681C89.8446 127.951 72.4619 115.905 69.1921 97.7418C65.9222 79.5785 77.9678 62.1957 96.11 58.9259C114.252 55.6561 131.656 67.7017 134.947 85.8439C138.238 103.986 126.192 121.411 108.008 124.681ZM94.5068 49.8548C71.3438 54.0528 55.9651 76.2032 60.1421 99.3661C64.319 122.529 86.5115 137.887 109.675 133.71C132.837 129.533 148.195 107.34 143.997 84.1984C139.799 61.0566 117.649 45.6568 94.5068 49.8548Z" fill="#005D9F"/>
<path fill-rule="evenodd" clip-rule="evenodd" d="M54.6572 58.3985H54.5306L50.86 58.8837C50.3537 58.947 49.9951 59.4111 50.0584 59.9174L50.5436 63.588C50.5857 63.8412 50.7123 64.0521 50.9233 64.1998C51.1131 64.3475 51.3452 64.4108 51.5772 64.3686L55.2479 63.8834C55.7331 63.8412 56.0917 63.4193 56.0495 62.913V62.8919L55.5643 59.2212C55.5221 58.9681 55.3956 58.7571 55.1846 58.6306C55.0369 58.504 54.8471 58.4196 54.6572 58.3985ZM51.4507 64.7061C51.1764 64.7061 50.9022 64.6217 50.6912 64.4529C50.4381 64.2631 50.2693 63.9466 50.2271 63.6302L49.7419 59.9596C49.7208 59.6432 49.8052 59.3056 49.9951 59.0525C50.206 58.7993 50.5014 58.6306 50.8178 58.5884L54.4673 58.1032C54.8049 58.061 55.1213 58.1454 55.3956 58.3352C55.6487 58.5462 55.8175 58.8415 55.8808 59.158L56.3449 62.8286C56.4503 63.5036 55.9862 64.1154 55.3112 64.2209H55.2901L51.6194 64.7061H51.4507Z" fill="#B3D4EF"/>
<path fill-rule="evenodd" clip-rule="evenodd" d="M119.442 100.463C119.442 105.378 116.341 107.825 111.552 107.825C106.763 107.825 103.62 105.378 103.62 100.463C103.62 95.5478 106.848 92.8687 111.552 92.8687C116.256 92.8687 119.442 95.6111 119.442 100.463ZM111.425 69.0094C120.201 69.0094 125.538 63.2294 125.538 54.6644C125.538 44.7285 120.961 39.0536 111.004 39.0536C106.932 39.0536 102.882 40.5516 101.911 41.9439C104.042 43.2308 104.59 44.7285 104.59 46.648C104.59 50.1712 101.911 52.9767 97.418 52.9767C92.9246 52.9767 89.9502 49.9603 89.9502 45.6778C89.9502 38.3366 99.0424 30.9531 113.577 30.9531C126.931 30.9531 142.436 36.1848 142.436 54.2424C142.436 69.98 130.686 77.0257 117.311 77.5322L116.13 85.5485H107.586V69.0094H111.425Z" fill="#FFCD2E"/>
</svg>
