<svg width="10" height="12" viewBox="0 0 10 12" fill="none" xmlns="http://www.w3.org/2000/svg">
<path d="M9.64286 1.07813H6.96429L6.75446 0.66724C6.71002 0.579397 6.64155 0.505504 6.55677 0.453877C6.47198 0.402249 6.37425 0.374933 6.27455 0.375004H3.72321C3.62375 0.374627 3.52618 0.401841 3.4417 0.453526C3.35721 0.505211 3.28923 0.579278 3.24554 0.66724L3.03571 1.07813H0.357143C0.262423 1.07813 0.171582 1.11517 0.104605 1.1811C0.0376275 1.24703 0 1.33645 0 1.42969L0 2.13282C0 2.22606 0.0376275 2.31548 0.104605 2.38141C0.171582 2.44734 0.262423 2.48438 0.357143 2.48438H9.64286C9.73758 2.48438 9.82842 2.44734 9.8954 2.38141C9.96237 2.31548 10 2.22606 10 2.13282V1.42969C10 1.33645 9.96237 1.24703 9.8954 1.1811C9.82842 1.11517 9.73758 1.07813 9.64286 1.07813ZM1.1875 10.6362C1.20453 10.904 1.32459 11.1553 1.52323 11.339C1.72186 11.5227 1.98415 11.625 2.2567 11.625H7.7433C8.01585 11.625 8.27814 11.5227 8.47677 11.339C8.67541 11.1553 8.79547 10.904 8.8125 10.6362L9.28571 3.1875H0.714286L1.1875 10.6362Z" fill="#DB5D00"/>
</svg>
